<svg xmlns="http://www.w3.org/2000/svg" viewBox="0 0 1230.86 340.01"><defs><style>.cls-1{fill:#2c3357;}.cls-2,.cls-3{fill:#007db7;}.cls-3{font-size:86.02px;font-family:MuseoSans-300, Museo Sans;font-weight:300;letter-spacing:0.4em;}</style></defs><g id="Layer_2" data-name="Layer 2"><g id="katman_1" data-name="katman 1"><polygon class="cls-1" points="114.28 63.3 54.82 97.63 114.28 131.96 173.74 97.63 114.28 63.3"/><path class="cls-1" d="M114.28,0,0,66v132l114.28,66,114.27-66V66Zm0,219.93-76.19-44V88l76.19-44,76.18,44v88Z"/><polygon class="cls-2" points="54.82 97.63 54.82 166.28 114.28 200.61 114.28 131.96 54.82 97.63"/><path class="cls-1" d="M314.2,219.36H288.85V43.92H314.7v66a37.41,37.41,0,0,1,5.27-5.52c9.54-6.78,22.09-11.54,33.13-11.54,37.9,0,65.26,26.85,65.26,63.49v62.75h-25.1V156.36c0-22.08-14.81-38.4-40.16-38.4-22.08,0-38.4,16.32-38.9,37.9Z"/><path class="cls-1" d="M550,94.62,478.22,254H451.36l13.81-29.62,5-11.55L465.42,202,421.75,94.62h24.34l31.13,78.81L482.49,188l6.27-14.31,35.89-79.06Z"/><path class="cls-1" d="M779.12,93.62v22.84c.25,0-35.39-2.51-39.91,27.35v75.8H712.86V94.12h26.35v11.55C749.5,97.38,753.27,93.62,779.12,93.62Z"/><path class="cls-1" d="M913.82,156.36c0,36.15-29.62,65.51-65.76,65.51s-64.75-29.36-64.75-65.51,28.61-65.25,64.75-65.25S913.82,120.22,913.82,156.36Zm-24.1,0c0-24.09-17.32-42.66-41.66-42.66-23.84,0-41.91,18.57-41.91,42.66,0,24.35,18.07,42.92,41.91,42.92C872.4,199.28,889.72,180.71,889.72,156.36Z"/><path class="cls-1" d="M1201.77,177.7c-12,29.36-36.65,43.92-62.25,43.92-35.64,0-64.25-29.37-64.25-64.75,0-35.64,28.61-65,64.25-65,35.39,0,64,29.37,64,65a63.57,63.57,0,0,1-.25,7h-103.4c3.26,19.33,19.32,34.39,39.65,34.39,15.56,0,29.12-7.53,35.64-20.58Zm-101.15-32.63h78.06c-.76-2-2-4-2.77-6-6.52-13.81-20.07-24.1-36.39-24.1-17.06,0-30.87,10.79-37.14,25.35A22,22,0,0,0,1100.62,145.07Z"/><path class="cls-1" d="M996.42,93.37c-43.65.49-64.64,29.14-64.64,63.48v63h25.86v-63c0-22.34,13.05-38.9,38.4-38.9h.76c25.35,0,38.4,16.56,38.4,38.9v63h25.85v-63C1061.05,122.51,1040.07,93.86,996.42,93.37Z"/><path class="cls-1" d="M631.78,95.68V118c22.08,0,39.4,18.07,39.4,40.66,0,22.34-17.32,40.16-39.4,40.16v22.83a63,63,0,1,0,0-126Z"/><path class="cls-1" d="M588.87,43.75H563.26v115h0c.06,34.76,30.46,62.76,68.51,62.89V198.83c-24,0-42.85-17.82-42.85-40.16,0-22.59,18.83-40.66,42.85-40.66V95.68a72.79,72.79,0,0,0-42.9,13.79Z"/><polygon class="cls-1" points="114.28 177.73 114.28 200.61 134.1 189.17 134.1 166.28 114.28 177.73"/><polygon class="cls-1" points="114.28 131.96 114.28 154.84 134.1 143.4 134.1 120.51 114.28 131.96"/><polygon class="cls-1" points="134.1 143.4 134.1 166.28 153.92 154.84 153.92 131.96 134.1 143.4"/><polygon class="cls-1" points="153.91 109.07 153.91 131.96 173.74 120.51 173.74 97.63 153.91 109.07"/><text class="cls-3" transform="translate(562.92 321.94)">SENTINEL</text></g></g></svg>