<svg width="24" height="24" viewBox="0 0 24 24" fill="none" xmlns="http://www.w3.org/2000/svg">
<path fill-rule="evenodd" clip-rule="evenodd" d="M4.21997 4.21997V7.04997C11.25 7.04997 16.95 12.75 16.95 19.78H19.78C19.78 11.19 12.81 4.21997 4.21997 4.21997ZM6.39997 15.42C5.19599 15.42 4.21997 16.396 4.21997 17.6C4.21997 18.804 5.19599 19.78 6.39997 19.78C7.60395 19.78 8.57997 18.804 8.57997 17.6C8.57997 16.396 7.60395 15.42 6.39997 15.42ZM4.21997 12.71V9.87997C9.68997 9.87997 14.12 14.31 14.12 19.78H11.29C11.29 15.88 8.11997 12.71 4.21997 12.71Z" fill="#6FCF97"/>
</svg>
