<svg width="166" height="153" viewBox="0 0 166 153" fill="none" xmlns="http://www.w3.org/2000/svg">
<g clip-path="url(#clip0)">
<path d="M4.59832 146.67H0V114.632H4.69143V126.687C4.97344 126.317 5.29426 125.978 5.64833 125.677C7.40236 124.395 9.49292 123.662 11.6587 123.569C18.5381 123.569 23.5037 128.473 23.5037 135.167V146.618H18.9468V135.167C18.9468 131.132 16.2622 128.155 11.6587 128.155C10.7408 128.131 9.8275 128.293 8.9725 128.63C8.11751 128.967 7.33813 129.472 6.68024 130.117C6.02235 130.762 5.49924 131.532 5.14169 132.383C4.78415 133.234 4.5994 134.149 4.59832 135.073V146.67Z" fill="#2C3357"/>
<path d="M47.3953 123.887L34.3659 153H29.483L31.9865 147.592L32.8969 145.478L32.0693 143.511L24.1192 123.887H28.5365L34.1848 138.279L35.1417 140.939L36.2797 138.337L42.7918 123.887H47.3953Z" fill="#2C3357"/>
<path d="M88.9664 123.71V127.874C89.013 127.874 82.5422 127.416 81.725 132.871V146.712H76.9404V123.809H81.725V125.891C83.6026 124.407 84.3112 123.71 88.9664 123.71Z" fill="#2C3357"/>
<path d="M113.422 135.167C113.412 138.345 112.151 141.39 109.914 143.634C107.677 145.879 104.647 147.139 101.489 147.139C98.342 147.139 95.3239 145.881 93.0987 143.641C90.8734 141.402 89.6233 138.365 89.6233 135.198C89.6233 132.031 90.8734 128.994 93.0987 126.754C95.3239 124.515 98.342 123.257 101.489 123.257C104.64 123.247 107.666 124.496 109.903 126.728C112.14 128.961 113.405 131.996 113.422 135.167ZM109.051 135.167C109.051 130.768 105.906 127.359 101.489 127.359C100.474 127.349 99.4684 127.546 98.5311 127.937C97.5938 128.328 96.7445 128.905 96.0341 129.634C95.3238 130.363 94.7668 131.228 94.3967 132.179C94.0266 133.13 93.851 134.146 93.8802 135.167C93.8802 139.612 97.1596 143.006 101.489 143.006C105.906 143.006 109.051 139.612 109.051 135.167Z" fill="#2C3357"/>
<path d="M165.679 139.065C163.491 144.427 159.028 147.087 154.383 147.087C152.046 147.119 149.752 146.45 147.794 145.166C145.835 143.882 144.301 142.041 143.385 139.877C142.47 137.713 142.215 135.323 142.654 133.013C143.092 130.702 144.203 128.575 145.846 126.903C147.49 125.23 149.59 124.087 151.881 123.619C154.171 123.152 156.549 123.381 158.71 124.277C160.871 125.173 162.718 126.696 164.016 128.652C165.314 130.608 166.005 132.908 166 135.26C166.009 135.688 165.993 136.115 165.953 136.541H147.188C147.449 138.278 148.316 139.865 149.635 141.016C150.953 142.168 152.637 142.809 154.383 142.824C157.207 142.824 159.669 141.444 160.853 139.065H165.679ZM147.322 133.105H161.49C161.355 132.736 161.128 132.371 160.972 132.002C160.408 130.678 159.465 129.553 158.263 128.771C157.061 127.989 155.655 127.584 154.224 127.608C152.792 127.633 151.401 128.086 150.226 128.909C149.051 129.732 148.147 130.888 147.627 132.231C147.495 132.51 147.393 132.804 147.322 133.105Z" fill="#2C3357"/>
<path d="M128.412 123.663C120.493 123.751 116.68 128.983 116.68 135.255V146.759H121.372V135.255C121.372 131.174 123.741 128.15 128.344 128.15H128.484C133.082 128.15 135.451 131.174 135.451 135.255V146.759H140.143V135.255C140.143 128.983 136.336 123.751 128.412 123.663Z" fill="#2C3357"/>
<path d="M62.2351 124.084V128.16C64.1804 128.16 66.0459 128.938 67.4214 130.322C68.7969 131.706 69.5697 133.584 69.5697 135.541C69.5697 137.499 68.7969 139.376 67.4214 140.761C66.0459 142.145 64.1804 142.923 62.2351 142.923V147.087C63.7363 147.087 65.2227 146.789 66.6096 146.211C67.9965 145.633 69.2567 144.786 70.3182 143.717C71.3796 142.649 72.2216 141.381 72.7961 139.985C73.3706 138.59 73.6663 137.094 73.6663 135.583C73.6663 134.072 73.3706 132.576 72.7961 131.181C72.2216 129.785 71.3796 128.517 70.3182 127.449C69.2567 126.38 67.9965 125.533 66.6096 124.955C65.2227 124.377 63.7363 124.079 62.2351 124.079V124.084Z" fill="#2C3357"/>
<path d="M54.4505 114.6H49.7953V135.609C49.7953 141.954 55.3247 147.061 62.2092 147.092V142.928C57.8489 142.928 54.4505 139.674 54.4505 135.593C54.4505 131.512 57.8695 128.165 62.2092 128.165V124.09C59.4233 124.082 56.7069 124.964 54.4505 126.609V114.6Z" fill="#2C3357"/>
<path d="M53.6747 68.1533L82.9974 85.1903V102.227L39.0107 76.6692L53.6747 68.1533Z" fill="#2C3357"/>
<path d="M82.9974 85.1903V102.227L126.984 76.6692L112.325 68.1533L82.9974 85.1903Z" fill="#2C3357"/>
<path d="M112.325 68.1534L126.984 76.6693V25.5582L112.325 34.0741V68.1534Z" fill="#2C3357"/>
<path d="M82.9974 17.037L112.325 34.074L126.984 25.5581L82.9974 0V17.037Z" fill="#2C3357"/>
<path d="M82.9974 24.5171L60.1144 37.8167L82.9974 51.1111L105.886 37.8167L82.9974 24.5171Z" fill="#2C3357"/>
<path d="M82.9974 17.037V0L39.0107 25.5581L53.6747 34.074L82.9974 17.037Z" fill="#2C3357"/>
<path d="M39.0107 25.5582L53.6747 34.0741V68.1534L39.0107 76.6693V25.5582Z" fill="#2C3357"/>
<path d="M60.1144 37.8167V64.4106L82.9974 77.7102V51.111L60.1144 37.8167Z" fill="#007DB7"/>
<path d="M82.9974 68.8404V77.705L90.6268 73.2753V64.4106L82.9974 68.8404Z" fill="#2C3357"/>
<path d="M82.9974 51.111V59.9757L90.6268 55.5459V46.6813L82.9974 51.111Z" fill="#2C3357"/>
<path d="M90.6268 55.546V64.4107L98.2562 59.9757V51.1111L90.6268 55.546Z" fill="#2C3357"/>
<path d="M98.2562 42.2516V51.111L105.886 46.6813V37.8167L98.2562 42.2516Z" fill="#2C3357"/>
</g>
<defs>
<clipPath id="clip0">
<rect width="166" height="153" fill="white"/>
</clipPath>
</defs>
</svg>
