<?xml version="1.0" encoding="UTF-8"?>
<svg width="16px" height="16px" viewBox="0 0 16 16" version="1.1" xmlns="http://www.w3.org/2000/svg" xmlns:xlink="http://www.w3.org/1999/xlink">
    <!-- Generator: Sketch 63.1 (92452) - https://sketch.com -->
    <title>Hybrone Logo</title>
    <desc>Created with Sketch.</desc>
    <g id="hybron-logo-black" stroke="none" stroke-width="1" fill="none" fill-rule="evenodd">
        <g id="Group-9" transform="translate(1.000000, 0.000000)" fill="#000000">
            <g id="Group-8">
                <polygon id="Fill-1" points="6.93523522 3.81143145 10.5436881 5.88056352 6.93523522 7.9496956 3.32678239 5.88056352"></polygon>
                <path d="M6.92821132,0 L1.00628931e-05,3.97283019 L1.00628931e-05,11.9265409 L6.93525535,15.9033962 L13.8705006,11.9265409 L13.8705006,3.97283019 L6.94219874,0 L6.92821132,0 Z M2.31175849,10.600956 L2.31175849,5.29851572 L6.93525535,2.64724528 L11.5588528,5.29851572 L11.5588528,10.600956 L6.93525535,13.2521258 L2.31175849,10.600956 Z" id="Fill-2"></path>
                <polygon id="Fill-3" points="3.32689308 5.88056352 6.93534591 7.9496956 6.93534591 12.0880604 3.32689308 10.0188277"></polygon>
                <polygon id="Fill-4" points="8.13807296 10.0187874 8.13807296 11.3982088 6.93525535 12.0880201 6.93525535 10.7084981"></polygon>
                <polygon id="Fill-5" points="8.13807296 7.25999497 8.13807296 8.63941635 6.93525535 9.32922767 6.93525535 7.94970566"></polygon>
                <polygon id="Fill-6" points="9.34090063 7.94970566 9.34090063 9.32912704 8.13808302 10.0188377 8.13808302 8.63941635"></polygon>
                <polygon id="Fill-7" points="10.5437283 5.88056352 10.5437283 7.25998491 9.34091069 7.9496956 9.34091069 6.57027421"></polygon>
            </g>
        </g>
    </g>
</svg>