<svg width="56" height="39" viewBox="0 0 56 39" fill="none" xmlns="http://www.w3.org/2000/svg">
<rect width="56" height="29" rx="5" fill="#6FCF97"/>
<path d="M27.5 39L18.4067 23.25L36.5933 23.25L27.5 39Z" fill="#6FCF97"/>
<path d="M14.752 14.2646H15.7637C16.2741 14.2601 16.6774 14.1279 16.9736 13.8682C17.2744 13.6084 17.4248 13.2324 17.4248 12.7402C17.4248 12.2663 17.2995 11.8994 17.0488 11.6396C16.8027 11.3753 16.4245 11.2432 15.9141 11.2432C15.4674 11.2432 15.1006 11.373 14.8135 11.6328C14.5264 11.888 14.3828 12.223 14.3828 12.6377H12.7217C12.7217 12.1273 12.8561 11.6624 13.125 11.2432C13.3984 10.8239 13.7767 10.498 14.2598 10.2656C14.7474 10.0286 15.292 9.91016 15.8936 9.91016C16.887 9.91016 17.6663 10.1608 18.2314 10.6621C18.8011 11.1589 19.0859 11.8516 19.0859 12.7402C19.0859 13.1868 18.9424 13.6084 18.6553 14.0049C18.3727 14.3968 18.0059 14.693 17.5547 14.8936C18.1016 15.0804 18.5163 15.3743 18.7988 15.7754C19.0859 16.1764 19.2295 16.6549 19.2295 17.2109C19.2295 18.1042 18.9219 18.8151 18.3066 19.3438C17.696 19.8724 16.8916 20.1367 15.8936 20.1367C14.9365 20.1367 14.1527 19.8815 13.542 19.3711C12.9313 18.8607 12.626 18.1816 12.626 17.334H14.2871C14.2871 17.7715 14.4329 18.127 14.7246 18.4004C15.0208 18.6738 15.4173 18.8105 15.9141 18.8105C16.429 18.8105 16.8346 18.6738 17.1309 18.4004C17.4271 18.127 17.5752 17.7305 17.5752 17.2109C17.5752 16.6868 17.4202 16.2835 17.1104 16.001C16.8005 15.7184 16.3402 15.5771 15.7295 15.5771H14.752V14.2646ZM26.4072 16.4521H27.6445V17.7852H26.4072V20H24.7461V17.7852H20.4463L20.3984 16.7734L24.6914 10.0469H26.4072V16.4521ZM22.1416 16.4521H24.7461V12.2959L24.623 12.5146L22.1416 16.4521ZM35.0137 12.6719C35.0137 13.1595 34.8883 13.5947 34.6377 13.9775C34.387 14.3558 34.0452 14.6543 33.6123 14.873C34.1318 15.1146 34.5306 15.445 34.8086 15.8643C35.0911 16.2835 35.2324 16.7575 35.2324 17.2861C35.2324 18.1611 34.9362 18.8561 34.3438 19.3711C33.7513 19.8815 32.9629 20.1367 31.9785 20.1367C30.9896 20.1367 30.1966 19.8792 29.5996 19.3643C29.0072 18.8493 28.7109 18.1566 28.7109 17.2861C28.7109 16.7529 28.8522 16.2744 29.1348 15.8506C29.4173 15.4268 29.8138 15.1009 30.3242 14.873C29.8958 14.6543 29.5563 14.3558 29.3057 13.9775C29.0596 13.5947 28.9365 13.1595 28.9365 12.6719C28.9365 11.8242 29.21 11.152 29.7568 10.6553C30.3037 10.1585 31.042 9.91016 31.9717 9.91016C32.9059 9.91016 33.6465 10.1585 34.1934 10.6553C34.7402 11.152 35.0137 11.8242 35.0137 12.6719ZM33.5713 17.2041C33.5713 16.7119 33.4232 16.3154 33.127 16.0146C32.8353 15.7093 32.4479 15.5566 31.9648 15.5566C31.4818 15.5566 31.0944 15.707 30.8027 16.0078C30.5156 16.3086 30.3721 16.7074 30.3721 17.2041C30.3721 17.6917 30.5133 18.0814 30.7959 18.373C31.083 18.6647 31.4772 18.8105 31.9785 18.8105C32.4798 18.8105 32.8695 18.6693 33.1475 18.3867C33.43 18.1042 33.5713 17.71 33.5713 17.2041ZM33.3594 12.7334C33.3594 12.3005 33.234 11.945 32.9834 11.667C32.7327 11.3844 32.3955 11.2432 31.9717 11.2432C31.5479 11.2432 31.2129 11.3776 30.9668 11.6465C30.7207 11.9108 30.5977 12.2731 30.5977 12.7334C30.5977 13.1891 30.7207 13.5514 30.9668 13.8203C31.2174 14.0892 31.5547 14.2236 31.9785 14.2236C32.4023 14.2236 32.7373 14.0892 32.9834 13.8203C33.234 13.5514 33.3594 13.1891 33.3594 12.7334ZM43.3262 10.9697L39.3477 20H37.6045L41.5762 11.3799H36.4287V10.0469H43.3262V10.9697Z" fill="white"/>
</svg>
