<svg width="56" height="39" xmlns="http://www.w3.org/2000/svg">

 <g>
  <title>background</title>
  <rect fill="none" id="canvas_background" height="602" width="802" y="-1" x="-1"/>
 </g>
 <g>
  <title>Layer 1</title>
  <rect id="svg_1" fill="#6FCF97" rx="5" height="29" width="56"/>
  <path id="svg_2" fill="#6FCF97" d="m27.5,39l-9.0933,-15.75l18.1866,0l-9.0933,15.75z"/>
  <path id="svg_3" fill="white" d="m14.752,14.2646l1.0117,0c0.5104,-0.0045 0.9137,-0.1367 1.2099,-0.3964c0.3008,-0.2598 0.4512,-0.6358 0.4512,-1.128c0,-0.4739 -0.1253,-0.8408 -0.376,-1.1006c-0.2461,-0.2643 -0.6243,-0.3964 -1.1347,-0.3964c-0.4467,0 -0.8135,0.1298 -1.1006,0.3896c-0.2871,0.2552 -0.4307,0.5902 -0.4307,1.0049l-1.6611,0c0,-0.5104 0.1344,-0.9753 0.4033,-1.3945c0.2734,-0.4193 0.6517,-0.7452 1.1348,-0.9776c0.4876,-0.237 1.0322,-0.35544 1.6338,-0.35544c0.9934,0 1.7727,0.25064 2.3378,0.75194c0.5697,0.4968 0.8545,1.1895 0.8545,2.0781c0,0.4466 -0.1435,0.8682 -0.4306,1.2647c-0.2826,0.3919 -0.6494,0.6881 -1.1006,0.8887c0.5469,0.1868 0.9616,0.4807 1.2441,0.8818c0.2871,0.401 0.4307,0.8795 0.4307,1.4355c0,0.8933 -0.3076,1.6042 -0.9229,2.1329c-0.6106,0.5286 -1.415,0.7929 -2.413,0.7929c-0.9571,0 -1.7409,-0.2552 -2.3516,-0.7656c-0.6107,-0.5104 -0.916,-1.1895 -0.916,-2.0371l1.6611,0c0,0.4375 0.1458,0.793 0.4375,1.0664c0.2962,0.2734 0.6927,0.4101 1.1895,0.4101c0.5149,0 0.9205,-0.1367 1.2168,-0.4101c0.2962,-0.2734 0.4443,-0.6699 0.4443,-1.1895c0,-0.5241 -0.155,-0.9274 -0.4648,-1.2099c-0.3099,-0.2826 -0.7702,-0.4239 -1.3809,-0.4239l-0.9775,0l0,-1.3125zm11.6552,2.1875l1.2373,0l0,1.3331l-1.2373,0l0,2.2148l-1.6611,0l0,-2.2148l-4.2998,0l-0.0479,-1.0118l4.293,-6.7265l1.7158,0l0,6.4052zm-4.2656,0l2.6045,0l0,-4.1562l-0.1231,0.2187l-2.4814,3.9375zm12.8721,-3.7802c0,0.4876 -0.1254,0.9228 -0.376,1.3056c-0.2507,0.3783 -0.5925,0.6768 -1.0254,0.8955c0.5195,0.2416 0.9183,0.572 1.1963,0.9913c0.2825,0.4192 0.4238,0.8932 0.4238,1.4218c0,0.875 -0.2962,1.57 -0.8886,2.085c-0.5925,0.5104 -1.3809,0.7656 -2.3653,0.7656c-0.9889,0 -1.7819,-0.2575 -2.3789,-0.7724c-0.5924,-0.515 -0.8887,-1.2077 -0.8887,-2.0782c0,-0.5332 0.1413,-1.0117 0.4239,-1.4355c0.2825,-0.4238 0.679,-0.7497 1.1894,-0.9776c-0.4284,-0.2187 -0.7679,-0.5172 -1.0185,-0.8955c-0.2461,-0.3828 -0.3692,-0.818 -0.3692,-1.3056c0,-0.8477 0.2735,-1.5199 0.8203,-2.0166c0.5469,-0.4968 1.2852,-0.74514 2.2149,-0.74514c0.9342,0 1.6748,0.24834 2.2217,0.74514c0.5468,0.4967 0.8203,1.1689 0.8203,2.0166zm-1.4424,4.5322c0,-0.4922 -0.1481,-0.8887 -0.4443,-1.1895c-0.2917,-0.3053 -0.6791,-0.458 -1.1622,-0.458c-0.483,0 -0.8704,0.1504 -1.1621,0.4512c-0.2871,0.3008 -0.4306,0.6996 -0.4306,1.1963c0,0.4876 0.1412,0.8773 0.4238,1.1689c0.2871,0.2917 0.6813,0.4375 1.1826,0.4375c0.5013,0 0.891,-0.1412 1.169,-0.4238c0.2825,-0.2825 0.4238,-0.6767 0.4238,-1.1826zm-0.2119,-4.4707c0,-0.4329 -0.1254,-0.7884 -0.376,-1.0664c-0.2507,-0.2826 -0.5879,-0.4238 -1.0117,-0.4238c-0.4238,0 -0.7588,0.1344 -1.0049,0.4033c-0.2461,0.2643 -0.3691,0.6266 -0.3691,1.0869c0,0.4557 0.123,0.818 0.3691,1.0869c0.2506,0.2689 0.5879,0.4033 1.0117,0.4033c0.4238,0 0.7588,-0.1344 1.0049,-0.4033c0.2506,-0.2689 0.376,-0.6312 0.376,-1.0869zm9.9668,-1.7637l-3.9785,9.0303l-1.7432,0l3.9717,-8.6201l-5.1475,0l0,-1.333l6.8975,0l0,0.9228z"/>
  <rect id="svg_5" height="16" width="44" y="5" x="6.5" fill-opacity="null" stroke-opacity="null" stroke-width="null" stroke="null" fill="#6FCF97"/>
 </g>
</svg>