<svg width="82" height="20" viewBox="0 0 82 20" fill="none" xmlns="http://www.w3.org/2000/svg">
<rect x="0.5" y="0.5" width="81" height="19" rx="9.5" stroke="#F2994A"/>
<path d="M17.5464 7.60156V11.9521C17.5435 12.5557 17.353 13.0493 16.9751 13.4331C16.6001 13.8169 16.0903 14.0322 15.4458 14.0791L15.2217 14.0879C14.5215 14.0879 13.9634 13.8989 13.5474 13.521C13.1313 13.1431 12.9204 12.623 12.9146 11.9609V7.60156H13.7495V11.9346C13.7495 12.3975 13.877 12.7578 14.1318 13.0156C14.3867 13.2705 14.75 13.3979 15.2217 13.3979C15.6992 13.3979 16.064 13.2705 16.3159 13.0156C16.5708 12.7607 16.6982 12.4019 16.6982 11.939V7.60156H17.5464ZM19.7261 13.3101H22.7583V14H18.8779V7.60156H19.7261V13.3101ZM27.3418 12.3301H24.6611L24.0591 14H23.189L25.6323 7.60156H26.3706L28.8184 14H27.9526L27.3418 12.3301ZM24.916 11.6357H27.0913L26.0015 8.64307L24.916 11.6357ZM31.5649 11.1479C30.8413 10.9399 30.314 10.6851 29.9829 10.3833C29.6548 10.0786 29.4907 9.70361 29.4907 9.2583C29.4907 8.75439 29.6914 8.33838 30.0928 8.01025C30.4971 7.6792 31.0215 7.51367 31.666 7.51367C32.1055 7.51367 32.4966 7.59863 32.8394 7.76855C33.1851 7.93848 33.4517 8.17285 33.6392 8.47168C33.8296 8.77051 33.9248 9.09717 33.9248 9.45166H33.0767C33.0767 9.06494 32.9536 8.76172 32.7075 8.54199C32.4614 8.31934 32.1143 8.20801 31.666 8.20801C31.25 8.20801 30.9248 8.30029 30.6904 8.48486C30.459 8.6665 30.3433 8.91992 30.3433 9.24512C30.3433 9.50586 30.4531 9.72705 30.6729 9.90869C30.8955 10.0874 31.272 10.2515 31.8022 10.4009C32.3354 10.5503 32.7515 10.7158 33.0503 10.8975C33.3521 11.0762 33.5747 11.2856 33.7183 11.5259C33.8647 11.7661 33.938 12.0488 33.938 12.374C33.938 12.8926 33.7358 13.3086 33.3315 13.6221C32.9272 13.9326 32.3867 14.0879 31.71 14.0879C31.2705 14.0879 30.8604 14.0044 30.4795 13.8374C30.0986 13.6675 29.8042 13.436 29.5962 13.1431C29.3911 12.8501 29.2886 12.5176 29.2886 12.1455H30.1367C30.1367 12.5322 30.2788 12.8384 30.563 13.064C30.8501 13.2866 31.2324 13.3979 31.71 13.3979C32.1553 13.3979 32.4966 13.3071 32.7339 13.1255C32.9712 12.9438 33.0898 12.6963 33.0898 12.3828C33.0898 12.0693 32.98 11.8276 32.7603 11.6577C32.5405 11.4849 32.1421 11.3149 31.5649 11.1479ZM32.0132 14L31.9604 14.2285C32.4087 14.3076 32.6328 14.561 32.6328 14.9888C32.6328 15.2729 32.5156 15.4971 32.2812 15.6611C32.0469 15.8281 31.7202 15.9116 31.3013 15.9116L31.2705 15.4414C31.502 15.4414 31.6807 15.4033 31.8066 15.3271C31.9355 15.251 32 15.144 32 15.0063C32 14.8774 31.9531 14.7822 31.8594 14.7207C31.7656 14.6592 31.5752 14.6152 31.2881 14.5889L31.4287 14H32.0132ZM35.9287 14H35.085V7.60156H35.9287V14ZM38.3237 13.3101H41.356V14H37.4756V7.60156H38.3237V13.3101ZM45.9395 12.3301H43.2588L42.6567 14H41.7866L44.23 7.60156H44.9683L47.416 14H46.5503L45.9395 12.3301ZM43.5137 11.6357H45.689L44.5991 8.64307L43.5137 11.6357ZM49.3672 7.60156L51.459 12.8223L53.5508 7.60156H54.645V14H53.8013V11.5083L53.8804 8.81885L51.7798 14H51.1338L49.0376 8.83203L49.1211 11.5083V14H48.2773V7.60156H49.3672ZM59.7471 12.3301H57.0664L56.4644 14H55.5942L58.0376 7.60156H58.7759L61.2236 14H60.3579L59.7471 12.3301ZM57.3213 11.6357H59.4966L58.4067 8.64307L57.3213 11.6357ZM62.085 14V7.60156H63.8911C64.4478 7.60156 64.9399 7.72461 65.3677 7.9707C65.7954 8.2168 66.125 8.56689 66.3564 9.021C66.5908 9.4751 66.7095 9.99658 66.7124 10.5854V10.9941C66.7124 11.5977 66.5952 12.1265 66.3608 12.5806C66.1294 13.0347 65.7969 13.3833 65.3633 13.6265C64.9326 13.8696 64.4302 13.9941 63.856 14H62.085ZM62.9287 8.2959V13.3101H63.8164C64.4668 13.3101 64.9722 13.1079 65.3325 12.7036C65.6958 12.2993 65.8774 11.7236 65.8774 10.9766V10.603C65.8774 9.87646 65.7061 9.3125 65.3633 8.91113C65.0234 8.50684 64.54 8.30176 63.9131 8.2959H62.9287ZM68.8965 14H68.0527V7.60156H68.8965V14Z" fill="#F2994A"/>
</svg>
