<svg width="82" height="20" viewBox="0 0 82 20" fill="none" xmlns="http://www.w3.org/2000/svg">
<rect x="0.5" y="0.5" width="81" height="19" rx="9.5" stroke="#6FCF97"/>
<path d="M28.7603 14H27.9121L24.6909 9.06934V14H23.8428V7.60156H24.6909L27.9209 12.5542V7.60156H28.7603V14ZM35.1807 11.0073C35.1807 11.6343 35.0752 12.1821 34.8643 12.6509C34.6533 13.1167 34.3545 13.4727 33.9678 13.7188C33.5811 13.9648 33.1299 14.0879 32.6143 14.0879C32.1104 14.0879 31.6636 13.9648 31.2739 13.7188C30.8843 13.4697 30.5811 13.1167 30.3643 12.6597C30.1504 12.1997 30.0405 11.668 30.0347 11.0645V10.603C30.0347 9.98779 30.1416 9.44434 30.3555 8.97266C30.5693 8.50098 30.8711 8.14062 31.2607 7.8916C31.6533 7.63965 32.1016 7.51367 32.6055 7.51367C33.1182 7.51367 33.5693 7.63818 33.959 7.88721C34.3516 8.1333 34.6533 8.49219 34.8643 8.96387C35.0752 9.43262 35.1807 9.979 35.1807 10.603V11.0073ZM34.3413 10.5942C34.3413 9.83545 34.189 9.25391 33.8843 8.84961C33.5796 8.44238 33.1533 8.23877 32.6055 8.23877C32.0723 8.23877 31.6519 8.44238 31.3442 8.84961C31.0396 9.25391 30.8828 9.81641 30.874 10.5371V11.0073C30.874 11.7427 31.0278 12.3213 31.3354 12.7432C31.646 13.1621 32.0723 13.3716 32.6143 13.3716C33.1592 13.3716 33.5811 13.1738 33.8799 12.7783C34.1787 12.3799 34.3325 11.8101 34.3413 11.0688V10.5942ZM38.793 11.4116H37.29V14H36.4419V7.60156H38.5601C39.2808 7.60156 39.8345 7.76562 40.2212 8.09375C40.6108 8.42188 40.8057 8.89941 40.8057 9.52637C40.8057 9.9248 40.6973 10.272 40.4805 10.5679C40.2666 10.8638 39.9678 11.085 39.584 11.2314L41.0869 13.9473V14H40.1816L38.793 11.4116ZM37.29 10.7217H38.5864C39.0054 10.7217 39.3379 10.6133 39.584 10.3965C39.833 10.1797 39.9575 9.88965 39.9575 9.52637C39.9575 9.13086 39.8389 8.82764 39.6016 8.6167C39.3672 8.40576 39.0273 8.29883 38.582 8.2959H37.29V10.7217ZM43.082 7.60156L45.1738 12.8223L47.2656 7.60156H48.3599V14H47.5161V11.5083L47.5952 8.81885L45.4946 14H44.8486L42.7524 8.83203L42.8359 11.5083V14H41.9922V7.60156H43.082ZM53.4619 12.3301H50.7812L50.1792 14H49.3091L51.7524 7.60156H52.4907L54.9385 14H54.0728L53.4619 12.3301ZM51.0361 11.6357H53.2114L52.1216 8.64307L51.0361 11.6357ZM56.6479 13.3101H59.6802V14H55.7998V7.60156H56.6479V13.3101Z" fill="#6FCF97"/>
</svg>
